<svg xmlns="http://www.w3.org/2000/svg" viewBox="0 0 512 512"><style>@media (prefers-color-scheme:dark){path{fill:#fff}}</style><path d="M463 19q-16 2-17 17 1 17 17 18c16 1 17-8 17-18q-2-15-17-17m-80 22c-161 1-219 217-363 96 3 37 88 79 88 79-26 20-35 24-72 25 104 87 339-100 408 40l-2-38-45-47 42 1v-10l-51-33 49-7-1-11-50-27 48-9-1-11-52-22 51-6-1-14q-26-6-48-6m70 30 21 424 18-1-20-423q-9 3-19 0m-93 222-44 70 22 25-16 105h19l15-102 28-21zm-157 18-29 70 21 20 2 92h19l-2-93 19-20zm-158 5-16 62 17 13 15 102h19L65 388l13-17zm86 7-28 58 15 17-7 95h19l7-95 16-15zm137 33-19 68 19 15 6 54h19l-6-54 16-22zm144 1-19 68 20 16 6 53h19l-6-55 16-21z" class="a"/></svg>